
<svg xmlns="http://www.w3.org/2000/svg" version="1.1" xmlns:xlink="http://www.w3.org/1999/xlink" preserveAspectRatio="none" x="0px" y="0px" width="550px" height="400px" viewBox="0 0 550 400">
<defs>
<g id="Layer0_0_FILL">
<path fill="#FF0000" stroke="none" d="
M 452.25 182.45
L 447.15 182.45 447.15 230.6 452.25 230.6 452.25 212.1 452.35 212.1
Q 454.5 216.45 463.15 216.45 470.65 216.45 473.4 212.85 476.3 209.2 476.3 199.25 476.3 190.35 474.35 186.9 471.55 182.1 463.15 182.1 454.85 182.1 452.35 186.7
L 452.25 186.55 452.25 182.45
M 461.75 186.2
Q 467.9 186.2 469.6 188.95 471.05 191.25 471.05 199.25 471.05 207.45 469.35 209.9 467.6 212.35 461.75 212.35 455.6 212.35 453.6 208.8 452.25 206.25 452.25 199.25 452.25 191.55 453.4 189.4 455.2 186.2 461.75 186.2
M 422.75 195.7
Q 415.8 195.7 413.05 197.5 409.65 199.75 409.65 206.25 409.65 212.35 413.2 214.65 416 216.45 422.45 216.45 426.7 216.45 428.85 215.9 432.2 215 433.5 212.45
L 433.65 212.6 433.65 216.05 438.7 216.05 438.7 193.15
Q 438.75 186.1 434.6 183.75 431.6 182 424.1 182.1 417.3 182 414.55 183.4 410.65 185.35 410.65 191.2
L 410.65 191.95 415.9 191.95 415.9 190.75
Q 415.9 187.75 418.8 186.75 420.45 186.2 424.7 186.2 429.55 186.2 431.3 187.2 433.65 188.6 433.65 192.9
L 433.65 199.1 433.3 199.1
Q 432.55 195.7 422.75 195.7
M 430.8 200.55
Q 433.5 201.75 433.5 206.1 433.5 210.2 430.3 211.5 428.3 212.35 423.35 212.35 418.45 212.35 416.95 211.35 414.9 210.1 414.9 205.6 414.9 201.8 416.85 200.7 418.4 199.8 423.35 199.8 429.15 199.8 430.8 200.55
M 378.85 168.05
L 373.8 168.05 373.8 216.05 378.85 216.05 378.85 196.45
Q 378.85 190.5 380.8 188.45 382.85 186.2 388.95 186.2 393.45 186.2 395.1 187.45 397 188.95 397 193.35
L 397 216.05 402.05 216.05 402.05 193.7
Q 402.1 187 399 184.4 396.2 182.1 389.35 182.1 380.8 182.1 379 186.55
L 378.85 186.55 378.85 168.05
M 512.4 197
Q 512.4 187.9 509.3 184.85 506.4 182.1 498.05 182.1 489 182.1 486 185.45 482.9 188.85 482.9 199.25 482.9 209.35 485.55 212.65 488.55 216.45 498.05 216.45 505.15 216.45 508 215.1 512.4 213.1 512.4 207.1
L 512.4 205.85 507.2 205.85 507.2 207.15
Q 507.2 210.55 505.2 211.5 503.55 212.35 498.05 212.35 491.3 212.35 489.7 210.35 488.15 208.45 488.15 200.35
L 512.4 200.35 512.4 197
M 488.15 196.25
Q 488.5 189.95 489.8 188.3 491.55 186.2 498.05 186.2 503.95 186.2 505.35 187.65 506.95 189.25 507.15 196.25
L 488.15 196.25
M 361.95 169.5
Q 358.6 167.7 349.2 167.7 339.3 167.7 335.85 169.85 331.45 172.7 331.45 181.6 331.45 189.95 336.7 192.25 338.75 193.1 342.3 193.45
L 354.8 194.2
Q 357.5 194.4 358.8 194.9 361.95 196.15 361.95 202.25 361.95 208.85 359.25 210.45 357.25 211.65 348.85 211.65 340.7 211.65 338.95 210.3 336.7 208.6 336.8 201.1
L 331.35 201.1
Q 330.6 210.75 335.1 213.95 338.6 216.45 348.85 216.45 359.35 216.45 362.65 214.5 367.35 211.75 367.35 202.45 367.35 193.6 363.05 191.15 361.15 190.05 357.7 189.65
L 350.2 189.1
Q 341.85 188.85 340.2 188.1 336.9 186.65 336.9 180.45 336.9 175.4 338.95 173.95 341.15 172.45 349 172.45 356.9 172.45 358.7 173.7 360.85 175.1 361.05 181.2
L 366.45 181.2
Q 366.85 172.3 361.95 169.5
M 283.35 182.45
L 283.35 186.55 287.8 186.55 287.8 206.35
Q 287.8 212.3 289.65 214.35 291.65 216.45 297.45 216.45 302.6 216.45 304.9 214 307.15 211.7 307.15 206.65
L 307.15 204.15 302.35 204.15 302.35 206.65
Q 302.35 209.7 301.75 210.7 300.8 212.35 297.6 212.35 294.8 212.35 293.85 211.45 292.9 210.6 292.85 207.85
L 292.85 186.55 305.85 186.55 305.85 182.45 292.85 182.45 292.85 174.35 287.8 174.35 287.8 182.45 283.35 182.45
M 261.35 182.45
L 255.7 182.45 266.55 198.5 254.4 216.05 260.45 216.05 269.2 202.5 277.85 216.05 283.95 216.05 272 198.5 282.7 182.45 276.8 182.45 269.2 194.75 261.35 182.45
M 236.95 182.1
Q 227.9 182.1 224.9 185.45 221.8 188.85 221.8 199.25 221.8 209.35 224.45 212.65 227.45 216.45 236.95 216.45 244.05 216.45 246.9 215.1 251.3 213.1 251.3 207.1
L 251.3 205.85 246.1 205.85 246.1 207.15
Q 246.1 210.55 244.1 211.5 242.45 212.35 236.95 212.35 230.2 212.35 228.6 210.35 227.05 208.45 227.05 200.35
L 251.3 200.35 251.3 197
Q 251.3 187.9 248.2 184.85 245.3 182.1 236.95 182.1
M 228.7 188.3
Q 230.45 186.2 236.95 186.2 242.85 186.2 244.25 187.65 245.85 189.25 246.05 196.25
L 227.05 196.25
Q 227.4 189.95 228.7 188.3
M 181.7 172.85
L 197.25 172.85 197.25 216.05 202.7 216.05 202.7 172.85 218.25 172.85 218.25 168.05 181.7 168.05 181.7 172.85
M 140.1 182.45
L 135.65 182.45 135.65 186.55 140.1 186.55 140.1 206.35
Q 140.1 212.3 141.95 214.35 143.95 216.45 149.75 216.45 154.9 216.45 157.2 214 159.45 211.7 159.45 206.65
L 159.45 204.15 154.65 204.15 154.65 206.65
Q 154.65 209.7 154.05 210.7 153.1 212.35 149.9 212.35 147.1 212.35 146.15 211.45 145.2 210.6 145.15 207.85
L 145.15 186.55 158.15 186.55 158.15 182.45 145.15 182.45 145.15 174.35 140.1 174.35 140.1 182.45
M 112.45 187
Q 113.95 186.55 119.5 186.55 124.1 186.55 125.45 186.95 127.35 187.6 127.35 189.95
L 127.35 191.2 132.6 191.2 132.6 189.95
Q 132.6 184.9 128.3 183.15 125.55 182.1 119.5 182.1 111.4 182.1 108.8 183.4 104.85 185.35 104.85 192 104.85 198.25 109.45 200 111.2 200.7 114.15 200.95
L 123.45 201.4
Q 125.35 201.5 126.2 201.8 128.3 202.6 128.3 206.75 128.3 210.6 125.2 211.6 124.05 211.95 119.5 211.95 113.7 211.95 111.8 211.2 109.85 210.45 109.85 208.05
L 109.85 205.45 104.6 205.45 104.6 208.55
Q 104.6 213.6 109.3 215.3 112.4 216.45 119.5 216.45 126.55 216.45 129.3 215.05 133.55 212.95 133.55 206.6 133.55 199.45 128.5 197.6 126.6 196.95 123.25 196.75
L 117.05 196.45
Q 112.45 196.25 111.6 195.7 110.1 194.75 110.1 190.65 110.1 187.8 112.45 187
M 95.2 184.85
Q 92.3 182.1 83.95 182.1 74.9 182.1 71.9 185.45 68.8 188.85 68.8 199.25 68.8 209.35 71.45 212.65 74.45 216.45 83.95 216.45 91.05 216.45 93.9 215.1 98.3 213.1 98.3 207.1
L 98.3 205.85 93.1 205.85 93.1 207.15
Q 93.1 210.55 91.1 211.5 89.45 212.35 83.95 212.35 77.2 212.35 75.6 210.35 74.05 208.45 74.05 200.35
L 98.3 200.35 98.3 197
Q 98.3 187.9 95.2 184.85
M 74.05 196.25
Q 74.4 189.95 75.7 188.3 77.45 186.2 83.95 186.2 89.85 186.2 91.25 187.65 92.85 189.25 93.05 196.25
L 74.05 196.25
M 28.7 168.05
L 28.7 172.85 44.25 172.85 44.25 216.05 49.7 216.05 49.7 172.85 65.25 172.85 65.25 168.05 28.7 168.05 Z"/>
</g>
</defs>

<g transform="matrix( 1, 0, 0, 1, 0,0) ">
<use xlink:href="#Layer0_0_FILL"/>
</g>
</svg>
